<?xml version="1.0" encoding="UTF-8"?>
<svg width="512px" height="512px" viewBox="0 0 512 512" version="1.1" xmlns="http://www.w3.org/2000/svg" xmlns:xlink="http://www.w3.org/1999/xlink">
    <title>Icon</title>
    <desc>Created with Sketch.</desc>
    <defs>
        <linearGradient x1="50%" y1="0%" x2="50%" y2="100%" id="linearGradient-1">
            <stop stop-color="#FFFFFF" offset="0%"></stop>
            <stop stop-color="#DFE9F3" offset="100%"></stop>
        </linearGradient>
    </defs>
    <g id="Icon" stroke="none" stroke-width="1" fill="none" fill-rule="evenodd">
        <rect id="Background" fill="url(#linearGradient-1)" x="0" y="0" width="512" height="512" rx="111"></rect>
        <g id="Smooth-Corners">
            <path d="M-3.93619317e-15,365.858544 C2.28704159e-15,416.675112 5.29105984,435.102427 15.2265641,453.680205 C25.1620684,472.257983 39.7420171,486.837932 58.3197949,496.773436 C76.8975727,506.70894 95.3248882,512 146.141456,512 L146.141456,512 L0,512 Z M512,365.858544 L512,512 L365.858544,512 C416.675112,512 435.102427,506.70894 453.680205,496.773436 C472.257983,486.837932 486.837932,472.257983 496.773436,453.680205 C506.70894,435.102427 512,416.675112 512,365.858544 L512,365.858544 Z M512,146.141456 C512,95.3248882 506.70894,76.8975727 496.773436,58.3197949 C486.837932,39.7420171 472.257983,25.1620684 453.680205,15.2265641 C435.102427,5.29105984 416.675112,-3.43056238e-15 365.858544,5.90428975e-15 L365.858544,5.90428975e-15 L512,0 Z M0,0 L146.141456,-5.90428975e-15 C95.3248882,3.43056238e-15 76.8975727,5.29105984 58.3197949,15.2265641 C39.7420171,25.1620684 25.1620684,39.7420171 15.2265641,58.3197949 C5.29105984,76.8975727 -2.28704159e-15,95.3248882 3.93619317e-15,146.141456 L3.93619317e-15,146.141456 L0,0 Z"></path>
        </g>
        <g id="flippy" transform="translate(59.000000, 45.000000)" fill="#000000">
            <g id="Combined-Shape">
                <path d="M265.136357,0 C273.711469,0 281.953011,1.42926555 289.636095,4.06273816 C296.850529,6.2234271 303.27715,7.57670357 308.816603,8.25452082 C317.372478,9.3014328 341.872641,8.95389759 343.675633,10.6508625 C345.478626,12.3478275 339.496901,19.5826372 332.379662,27.0720161 C325.262422,34.561395 315.491369,38.8497629 303.404079,54.7666261 C295.345886,65.3778683 296.830223,88.3256988 293.06654,89.6704745 C292.025338,90.042499 290.218039,89.0746597 288.180385,87.556823 C282.852428,83.5880596 274.288324,69.8691875 263.731169,71.0901595 C255.628158,72.027301 238.754702,80.6010043 225.514537,92.6616175 C217.31986,100.12624 210.928056,109.741559 206.594759,115.20023 C206.644228,115.462879 197.063879,128.200785 189.389205,143.083233 C182.894499,156.483699 180.630513,158.977649 175.446818,178.594883 C170.263123,198.212117 163.811224,220.941289 162.32176,246.736373 C160.832295,272.531457 162.32176,285.534168 162.32176,324.641831 C162.32176,363.749494 138.772866,380.823399 136.192057,381.972197 C133.611247,383.120995 119.75293,348.521789 119.75293,305.612228 C119.75293,270.724047 122.849552,236.03225 129.698117,202.80254 C121.779308,204.342781 112.868676,203.965884 86.9411004,210.68724 C50.2573145,220.196991 7.15786696,239.627932 1.39784196,228.081782 C-4.36218304,216.535631 53.3523792,171.721281 95.2383914,161.477728 C112.192413,157.331489 129.021034,154.948366 142.561221,155.113331 C152.349834,126.2643 165.558759,99.1625461 182.690281,74.7821107 C184.042407,34.2004707 224.256355,0 265.136357,0 Z M269.939774,17.305388 C263.042353,17.305388 257.450889,22.9010836 257.450889,29.8037238 C257.450889,36.7063641 263.042353,42.3020596 269.939774,42.3020596 C276.837195,42.3020596 282.428659,36.7063641 282.428659,29.8037238 C282.428659,22.9010836 276.837195,17.305388 269.939774,17.305388 Z"></path>
                <path d="M311.654238,151.556086 C313.459075,163.235178 349,182 362.5,188 C376,194 398.878064,218.343768 392.623178,226.375625 C386.630694,234.070534 334.567718,223.489147 321.512853,218.908894 C321.762988,229.384781 321.262717,223.400188 321.512853,264 C321.762988,304.599812 319.589958,309.779336 317.178522,323.592445 C314.767085,337.405554 304.432357,357.779889 296.30094,367.868961 C288.169524,377.958033 272.714683,382.953661 272.172854,388.339857 C271.631025,393.726054 276.339182,395.95682 281.027762,400.435144 C285.716341,404.913469 289.784423,415.053126 287.175628,417.252847 C286.21754,418.060702 284.356629,417.33848 282.232119,416.126644 C278.571766,414.038751 274.128934,410.497466 272.172854,410.824101 C269.081443,411.34032 269.91841,419.44382 264.312314,419.44382 C258.706218,419.44382 257.453437,410.813966 254.124387,410.307883 C252.781499,410.103737 250.351963,410.702077 248.263683,412.076119 C245.175069,414.108357 242.386768,417.252847 241.335826,417.252847 C239.57432,417.252847 237.252739,414.211075 238.690579,407.32311 C240.128418,400.435144 242.502837,400.723313 241.335826,397.522134 C240.168816,394.320954 236.847395,391.824586 227.626071,392.761882 C218.404748,393.699177 208.231101,395.611266 209.70668,398.474762 C211.182259,401.338257 213.219801,403.225698 215.41295,406.106088 C218.638022,410.341762 220.799094,416.26861 218.352253,418.133026 C215.905412,419.997441 206.126663,410.324765 202.571993,412.076119 C199.017324,413.827473 199.536388,421.951823 194.78153,422.552979 C190.026672,423.154134 188.595345,414.059554 183.835812,414.601414 C181.525733,414.86441 178.437142,419.611508 176.398677,420.910625 C174.360213,422.209742 171.337537,423.787419 168.899232,422.552979 C166.460927,421.318538 167.408319,416.126644 168.2254,412.076119 C169.042481,408.025594 173.357698,401.31426 173.11497,401.439461 C168.116363,404.017782 147,401.053083 147,398.474762 C147,397.43545 161.216605,391.30413 166.980474,385.060779 C172.744344,378.817427 176.483809,370.782338 181,369 C185.516191,367.217662 212.0442,367.775983 240.012552,356.05325 C267.980904,344.330517 269.824372,333.5 278.5,317 C287.175628,300.5 287.725327,279.518152 289.5,256 C290.601484,229.583391 290.601484,196.664055 289.5,184 C288.398516,171.335945 285.670385,136.669019 285,125 C284.001621,107.62179 293.841303,103.983515 297.038019,105.287982 C300.234734,106.592449 309.808476,139.612171 311.654238,151.556086 Z"></path>
            </g>
        </g>
    </g>
</svg>
